<svg width="1358.13125px" height="189.20001831054688px" xmlns="http://www.w3.org/2000/svg" viewBox="-429.06562499999995 -19.60000915527344 1358.13125 189.20001831054688" style="background: rgba(6, 179, 162, 0.294);" preserveAspectRatio="xMidYMid"><defs><filter id="editing-jagged" x="-100%" y="-100%" width="300%" height="300%"><feTurbulence result="turb" baseFrequency="0.04" numOctaves="1" seed="1"></feTurbulence><feDisplacementMap in="SourceGraphic" in2="turb" scale="10"></feDisplacementMap></filter></defs><g filter="url(#editing-jagged)"><g transform="translate(-241.34500062465668, 124.75500202178955)"><path d="M47.51-16.48L47.51-16.48L47.51-16.48Q49.54-13.91 49.54-9.74L49.54-9.74L49.54-9.74Q49.54-3.96 45.26-0.91L45.26-0.91L45.26-0.91Q40.98 2.14 34.24 2.14L34.24 2.14L34.24 2.14Q30.39 2.14 24.50 1.28L24.50 1.28L24.50 1.28Q12.95-0.54 9.42-0.54L9.42-0.54L9.42-0.54Q5.88-0.54 4.49-0.37L4.49-0.37L4.49-0.37Q3.10-0.21 0.86 0L0.86 0L14.02-70.62L60.13-70.62L60.13-70.62Q60.13-64.09 56.98-60.67L56.98-60.67L56.98-60.67Q53.82-57.24 47.62-57.24L47.62-57.24L47.62-57.24Q41.41-57.24 35.10-60.13L35.10-60.13L31.78-41.41L50.82-41.41L50.82-41.41Q50.82-35.74 48.04-32.58L48.04-32.58L48.04-32.58Q45.26-29.43 40.61-29.43L40.61-29.43L40.61-29.43Q35.95-29.43 33.06-30.50L33.06-30.50L33.06-30.50Q30.17-31.56 29.85-31.89L29.85-31.89L26.00-11.66L26.00-11.66Q28.57-11.34 33.38-11.34L33.38-11.34L33.38-11.34Q41.62-11.34 47.51-16.48ZM98.23-52.75L98.23-52.75L98.23-52.75Q101.76-56.71 107.86-56.71L107.86-56.71L107.86-56.71Q111.60-56.71 114.49-54.68L114.49-54.68L114.49-54.68Q117.38-52.64 117.38-48.85L117.38-48.85L117.38-48.85Q117.38-45.05 116.20-40.98L116.20-40.98L116.20-40.98Q115.02-36.91 113.21-32.74L113.21-32.74L113.21-32.74Q109.57-24.61 104.54-17.87L104.54-17.87L104.54-17.87Q97.48-8.13 90.68-3.00L90.68-3.00L90.68-3.00Q83.89 2.14 76.50 2.14L76.50 2.14L76.50 2.14Q70.51 2.14 66.88 0.75L66.88 0.75L66.88 0.75Q66.23-21.72 65.43-29.75L65.43-29.75L65.43-29.75Q64.63-37.77 63.99-42.16L63.99-42.16L63.99-42.16Q62.92-50.72 59.71-52.75L59.71-52.75L59.71-52.75Q62.17-54.89 64.57-55.80L64.57-55.80L64.57-55.80Q66.98-56.71 71.96-56.71L71.96-56.71L71.96-56.71Q76.93-56.71 80.46-52.80L80.46-52.80L80.46-52.80Q83.99-48.90 84.69-42.00L84.69-42.00L84.69-42.00Q85.39-35.10 85.39-26.75L85.39-26.75L85.39-26.75Q85.39-18.40 84.74-8.35L84.74-8.35L84.74-8.35Q88.06-10.70 91.59-17.87L91.59-17.87L91.59-17.87Q96.41-27.82 98.12-39.80L98.12-39.80L98.12-39.80Q98.65-43.44 98.65-47.29L98.65-47.29L98.65-47.29Q98.65-51.15 98.23-52.75ZM163.60-18.08L163.60-18.08L163.60-18.08Q166.28-16.26 166.28-12.25L166.28-12.25L166.28-12.25Q166.28-8.24 164.24-5.67L164.24-5.67L164.24-5.67Q162.21-3.10 158.89-1.39L158.89-1.39L158.89-1.39Q152.05 2.14 144.66 2.14L144.66 2.14L144.66 2.14Q137.28 2.14 132.95 0.54L132.95 0.54L132.95 0.54Q128.61-1.07 125.72-4.07L125.72-4.07L125.72-4.07Q120.05-9.74 120.05-20.12L120.05-20.12L120.05-20.12Q120.05-36.27 128.83-46.12L128.83-46.12L128.83-46.12Q138.24-56.71 154.61-56.71L154.61-56.71L154.61-56.71Q164.78-56.71 169.81-52.43L169.81-52.43L169.81-52.43Q173.55-49.22 173.55-43.98L173.55-43.98L173.55-43.98Q173.55-25.14 141.03-25.14L141.03-25.14L141.03-25.14Q140.60-22.36 140.60-20.01L140.60-20.01L140.60-20.01Q140.60-15.09 142.79-13.21L142.79-13.21L142.79-13.21Q144.98-11.34 149.05-11.34L149.05-11.34L149.05-11.34Q153.12-11.34 157.45-13.21L157.45-13.21L157.45-13.21Q161.78-15.09 163.60-18.08ZM141.77-29.75L141.77-29.75L141.77-29.75Q149.37-29.75 153.76-34.45L153.76-34.45L153.76-34.45Q158.15-38.95 158.15-46.12L158.15-46.12L158.15-46.12Q158.15-48.58 157.24-49.92L157.24-49.92L157.24-49.92Q156.33-51.25 154.51-51.25L154.51-51.25L154.51-51.25Q152.69-51.25 151.14-50.56L151.14-50.56L151.14-50.56Q149.59-49.86 147.98-47.51L147.98-47.51L147.98-47.51Q144.02-42.16 141.77-29.75ZM222.45 2.14L222.45 2.14L222.45 2.14Q209.51 2.14 209.51-7.92L209.51-7.92L209.51-7.92Q209.61-10.70 210.47-15.41L210.47-15.41L212.39-25.25L212.39-25.25Q215.28-39.16 215.28-42.27L215.28-42.27L215.28-42.27Q215.28-48.47 211.65-48.47L211.65-48.47L211.65-48.47Q205.55-48.47 202.34-32.53L202.34-32.53L196.02 0L174.52 2.14L185.64-54.68L203.19-56.71L201.48-46.22L201.48-46.22Q206.51-56.71 221.92-56.71L221.92-56.71L221.92-56.71Q229.41-56.71 232.56-53.55L232.56-53.55L232.56-53.55Q235.72-50.40 235.72-43.34L235.72-43.34L235.72-43.34Q235.72-36.70 232.30-21.19L232.30-21.19L232.30-21.19Q230.69-14.23 230.69-11.61L230.69-11.61L230.69-11.61Q230.69-8.99 232.14-7.49L232.14-7.49L232.14-7.49Q233.58-5.99 235.72-5.78L235.72-5.78L235.72-5.78Q234.65-2.14 230.96 0L230.96 0L230.96 0Q227.27 2.14 222.45 2.14ZM245.99-10.70L245.99-10.70L245.99-10.70Q245.99-13.59 247.49-20.86L247.49-20.86L253.16-49.76L246.85-49.76L247.28-52.96L247.28-52.96Q260.12-56.82 272.53-66.23L272.53-66.23L277.66-66.23L275.10-54.57L283.44-54.57L282.48-49.76L274.24-49.76L268.78-20.86L268.78-20.86Q267.39-14.23 267.39-11.98L267.39-11.98L267.39-11.98Q267.39-6.85 271.89-5.78L271.89-5.78L271.89-5.78Q270.82-2.14 266.96 0L266.96 0L266.96 0Q263.11 2.14 257.66 2.14L257.66 2.14L257.66 2.14Q252.20 2.14 249.10-1.28L249.10-1.28L249.10-1.28Q245.99-4.71 245.99-10.70ZM305.81 2.14L305.81 2.14L305.81 2.14Q282.27 2.14 282.27-20.01L282.27-20.01L282.27-20.01Q282.27-35.74 290.93-45.90L290.93-45.90L290.93-45.90Q300.13-56.71 316.08-56.71L316.08-56.71L316.08-56.71Q327.63-56.71 333.52-51.36L333.52-51.36L333.52-51.36Q339.40-46.01 339.40-34.77L339.40-34.77L339.40-34.77Q339.40-17.66 330.20-7.70L330.20-7.70L330.20-7.70Q321.21 2.14 305.81 2.14ZM308.59-44.41L308.59-44.41L308.59-44.41Q307.30-41.52 306.29-37.18L306.29-37.18L306.29-37.18Q305.27-32.85 303.99-26.00L303.99-26.00L303.99-26.00Q302.70-19.15 302.70-10.70L302.70-10.70L302.70-10.70Q302.70-7.92 303.61-6.10L303.61-6.10L303.61-6.10Q304.52-4.28 306.98-4.28L306.98-4.28L306.98-4.28Q309.44-4.28 311.00-5.46L311.00-5.46L311.00-5.46Q312.55-6.63 313.72-9.42L313.72-9.42L313.72-9.42Q315.86-14.34 317.58-23.49L317.58-23.49L317.58-23.49Q319.29-32.63 319.45-36.59L319.45-36.59L319.45-36.59Q319.61-40.55 319.61-43.50L319.61-43.50L319.61-43.50Q319.61-46.44 318.75-48.36L318.75-48.36L318.75-48.36Q317.90-50.29 315.49-50.29L315.49-50.29L315.49-50.29Q313.08-50.29 311.48-48.79L311.48-48.79L311.48-48.79Q309.87-47.29 308.59-44.41ZM377.71-37.56L377.71-37.56L377.71-37.56Q379.21-41.52 379.21-44.94L379.21-44.94L379.21-44.94Q379.21-51.25 374.07-51.25L374.07-51.25L374.07-51.25Q371.40-51.25 369.20-48.85L369.20-48.85L369.20-48.85Q367.01-46.44 367.01-43.44L367.01-43.44L367.01-43.44Q367.01-41.30 368.72-39.59L368.72-39.59L368.72-39.59Q371.18-37.24 377.50-33.38L377.50-33.38L377.50-33.38Q383.81-29.53 386.22-26.38L386.22-26.38L386.22-26.38Q388.62-23.22 388.62-18.89L388.62-18.89L388.62-18.89Q388.62-14.55 386.54-10.59L386.54-10.59L386.54-10.59Q384.45-6.63 380.71-3.85L380.71-3.85L380.71-3.85Q372.68 2.14 359.84 2.14L359.84 2.14L359.84 2.14Q352.89 2.14 347.54-1.50L347.54-1.50L347.54-1.50Q342.19-5.03 342.19-9.20L342.19-9.20L342.19-9.20Q342.19-13.38 345.24-15.84L345.24-15.84L345.24-15.84Q348.29-18.30 352.78-18.30L352.78-18.30L352.78-18.30Q357.27-18.30 360.06-16.59L360.06-16.59L360.06-16.59Q358.66-13.05 358.66-10.70L358.66-10.70L358.66-10.70Q358.66-3.64 364.66-3.64L364.66-3.64L364.66-3.64Q367.22-3.64 368.94-5.24L368.94-5.24L368.94-5.24Q370.65-6.85 370.65-9.63L370.65-9.63L370.65-9.63Q370.65-15.09 361.45-20.86L361.45-20.86L361.45-20.86Q353.96-25.79 352.24-27.71L352.24-27.71L352.24-27.71Q349.36-31.14 349.36-35.42L349.36-35.42L349.36-35.42Q349.36-39.70 351.39-43.76L351.39-43.76L351.39-43.76Q353.42-47.83 357.17-50.72L357.17-50.72L357.17-50.72Q364.98-56.71 378.57-56.71L378.57-56.71L378.57-56.71Q385.52-56.71 389.64-53.93L389.64-53.93L389.64-53.93Q393.76-51.15 393.76-46.44L393.76-46.44L393.76-46.44Q393.76-41.73 390.92-39.05L390.92-39.05L390.92-39.05Q388.09-36.38 382.95-36.38L382.95-36.38L382.95-36.38Q379.42-36.38 377.71-37.56ZM489.20-44.41L489.20-44.41L489.20-44.41Q489.20 1.18 439.77 1.18L439.77 1.18L439.77 1.18Q431.85 1.18 418.80-0.75L418.80-0.75L430.78-63.99L430.78-63.99Q431.64-68.27 432.17-70.73L432.17-70.73L432.17-70.73Q448.44-71.90 455.66-71.90L455.66-71.90L455.66-71.90Q462.88-71.90 469.52-70.41L469.52-70.41L469.52-70.41Q476.15-68.91 480.54-65.59L480.54-65.59L480.54-65.59Q489.20-59.06 489.20-44.41ZM467.16-48.36L467.16-48.36L467.16-48.36Q467.16-64.31 455.71-64.31L455.71-64.31L454.64-64.31L454.64-64.31Q454.11-64.31 453.57-64.20L453.57-64.20L442.55-6.74L442.55-6.74Q442.98-6.53 443.41-6.53L443.41-6.53L444.26-6.53L444.26-6.53Q448.22-6.53 452.34-8.99L452.34-8.99L452.34-8.99Q456.46-11.45 459.67-16.48L459.67-16.48L459.67-16.48Q467.16-28.14 467.16-48.36ZM538.00-18.08L538.00-18.08L538.00-18.08Q540.67-16.26 540.67-12.25L540.67-12.25L540.67-12.25Q540.67-8.24 538.64-5.67L538.64-5.67L538.64-5.67Q536.61-3.10 533.29-1.39L533.29-1.39L533.29-1.39Q526.44 2.14 519.06 2.14L519.06 2.14L519.06 2.14Q511.67 2.14 507.34 0.54L507.34 0.54L507.34 0.54Q503.01-1.07 500.12-4.07L500.12-4.07L500.12-4.07Q494.45-9.74 494.45-20.12L494.45-20.12L494.45-20.12Q494.45-36.27 503.22-46.12L503.22-46.12L503.22-46.12Q512.64-56.71 529.01-56.71L529.01-56.71L529.01-56.71Q539.17-56.71 544.20-52.43L544.20-52.43L544.20-52.43Q547.95-49.22 547.95-43.98L547.95-43.98L547.95-43.98Q547.95-25.14 515.42-25.14L515.42-25.14L515.42-25.14Q514.99-22.36 514.99-20.01L514.99-20.01L514.99-20.01Q514.99-15.09 517.18-13.21L517.18-13.21L517.18-13.21Q519.38-11.34 523.44-11.34L523.44-11.34L523.44-11.34Q527.51-11.34 531.84-13.21L531.84-13.21L531.84-13.21Q536.18-15.09 538.00-18.08ZM516.17-29.75L516.17-29.75L516.17-29.75Q523.76-29.75 528.15-34.45L528.15-34.45L528.15-34.45Q532.54-38.95 532.54-46.12L532.54-46.12L532.54-46.12Q532.54-48.58 531.63-49.92L531.63-49.92L531.63-49.92Q530.72-51.25 528.90-51.25L528.90-51.25L528.90-51.25Q527.08-51.25 525.53-50.56L525.53-50.56L525.53-50.56Q523.98-49.86 522.37-47.51L522.37-47.51L522.37-47.51Q518.41-42.16 516.17-29.75ZM601.45-7.33L601.45-7.33L601.45-7.33Q596.95-2.78 590.80-0.32L590.80-0.32L590.80-0.32Q584.65 2.14 578.55 2.14L578.55 2.14L578.55 2.14Q572.45 2.14 570.31 1.07L570.31 1.07L566.99 19.26L545.27 21.40L560.04-54.57L577.48-56.39L576.09-49.01L576.09-49.01Q580.58-56.60 589.89-56.60L589.89-56.60L589.89-56.60Q600.38-56.60 605.94-49.86L605.94-49.86L605.94-49.86Q610.86-43.76 610.86-34.45L610.86-34.45L610.86-34.45Q610.86-25.14 608.40-18.51L608.40-18.51L608.40-18.51Q605.94-11.88 601.45-7.33ZM577.26-37.34L571.59-5.99L571.59-5.99Q573.84-4.07 576.62-4.07L576.62-4.07L576.62-4.07Q579.40-4.07 581.01-5.14L581.01-5.14L581.01-5.14Q582.62-6.21 583.79-8.35L583.79-8.35L583.79-8.35Q587.00-14.12 589.57-31.67L589.57-31.67L589.57-31.67Q590.32-36.81 590.32-41.84L590.32-41.84L590.32-41.84Q590.32-46.87 589.20-48.47L589.20-48.47L589.20-48.47Q588.07-50.08 585.93-50.08L585.93-50.08L585.93-50.08Q579.40-50.08 577.26-37.34L577.26-37.34ZM640.61 2.14L640.61 2.14L640.61 2.14Q617.07 2.14 617.07-20.01L617.07-20.01L617.07-20.01Q617.07-35.74 625.74-45.90L625.74-45.90L625.74-45.90Q634.94-56.71 650.88-56.71L650.88-56.71L650.88-56.71Q662.44-56.71 668.32-51.36L668.32-51.36L668.32-51.36Q674.21-46.01 674.21-34.77L674.21-34.77L674.21-34.77Q674.21-17.66 665.00-7.70L665.00-7.70L665.00-7.70Q656.02 2.14 640.61 2.14ZM643.39-44.41L643.39-44.41L643.39-44.41Q642.11-41.52 641.09-37.18L641.09-37.18L641.09-37.18Q640.07-32.85 638.79-26.00L638.79-26.00L638.79-26.00Q637.51-19.15 637.51-10.70L637.51-10.70L637.51-10.70Q637.51-7.92 638.42-6.10L638.42-6.10L638.42-6.10Q639.32-4.28 641.79-4.28L641.79-4.28L641.79-4.28Q644.25-4.28 645.80-5.46L645.80-5.46L645.80-5.46Q647.35-6.63 648.53-9.42L648.53-9.42L648.53-9.42Q650.67-14.34 652.38-23.49L652.38-23.49L652.38-23.49Q654.09-32.63 654.25-36.59L654.25-36.59L654.25-36.59Q654.41-40.55 654.41-43.50L654.41-43.50L654.41-43.50Q654.41-46.44 653.56-48.36L653.56-48.36L653.56-48.36Q652.70-50.29 650.29-50.29L650.29-50.29L650.29-50.29Q647.88-50.29 646.28-48.79L646.28-48.79L646.28-48.79Q644.67-47.29 643.39-44.41ZM714.01-30.07L714.01-30.07L714.01-30.07Q717.86-36.91 717.86-43.87L717.86-43.87L717.86-43.87Q717.86-48.47 714.55-48.47L714.55-48.47L714.55-48.47Q711.98-48.47 709.30-44.08L709.30-44.08L709.30-44.08Q706.52-39.70 705.66-34.03L705.66-34.03L700.10 0L677.95 2.14L688.87-54.57L706.52-56.71L704.59-45.90L704.59-45.90Q709.84-56.71 721.61-56.71L721.61-56.71L721.61-56.71Q727.81-56.71 731.18-53.50L731.18-53.50L731.18-53.50Q734.55-50.29 734.55-43.71L734.55-43.71L734.55-43.71Q734.55-37.13 730.22-32.96L730.22-32.96L730.22-32.96Q725.89-28.78 718.50-28.78L718.50-28.78L718.50-28.78Q715.29-28.78 714.01-30.07ZM737.98-10.70L737.98-10.70L737.98-10.70Q737.98-13.59 739.48-20.86L739.48-20.86L745.15-49.76L738.83-49.76L739.26-52.96L739.26-52.96Q752.10-56.82 764.51-66.23L764.51-66.23L769.65-66.23L767.08-54.57L775.43-54.57L774.47-49.76L766.23-49.76L760.77-20.86L760.77-20.86Q759.38-14.23 759.38-11.98L759.38-11.98L759.38-11.98Q759.38-6.85 763.87-5.78L763.87-5.78L763.87-5.78Q762.80-2.14 758.95 0L758.95 0L758.95 0Q755.10 2.14 749.64 2.14L749.64 2.14L749.64 2.14Q744.18 2.14 741.08-1.28L741.08-1.28L741.08-1.28Q737.98-4.71 737.98-10.70ZM800.57-5.88L800.57-5.88L800.57-5.88Q797.26 2.14 786.66 2.14L786.66 2.14L786.66 2.14Q781.21 2.14 777.78-1.60L777.78-1.60L777.78-1.60Q774.89-4.92 774.89-8.24L774.89-8.24L774.89-8.24Q774.89-16.91 778.85-33.81L778.85-33.81L782.81-54.57L804.53-56.71L798.01-22.90L798.01-22.90Q796.19-14.98 796.19-12.20L796.19-12.20L796.19-12.20Q796.19-6.10 800.57-5.88ZM784.74-69.44L784.74-69.44L784.74-69.44Q784.74-73.62 788.22-75.86L788.22-75.86L788.22-75.86Q791.69-78.11 796.72-78.11L796.72-78.11L796.72-78.11Q801.75-78.11 804.80-75.86L804.80-75.86L804.80-75.86Q807.85-73.62 807.85-69.44L807.85-69.44L807.85-69.44Q807.85-65.27 804.48-63.13L804.48-63.13L804.48-63.13Q801.11-60.99 796.08-60.99L796.08-60.99L796.08-60.99Q791.05-60.99 787.89-63.13L787.89-63.13L787.89-63.13Q784.74-65.27 784.74-69.44ZM848.51-52.75L848.51-52.75L848.51-52.75Q852.04-56.71 858.14-56.71L858.14-56.71L858.14-56.71Q861.88-56.71 864.77-54.68L864.77-54.68L864.77-54.68Q867.66-52.64 867.66-48.85L867.66-48.85L867.66-48.85Q867.66-45.05 866.49-40.98L866.49-40.98L866.49-40.98Q865.31-36.91 863.49-32.74L863.49-32.74L863.49-32.74Q859.85-24.61 854.82-17.87L854.82-17.87L854.82-17.87Q847.76-8.13 840.97-3.00L840.97-3.00L840.97-3.00Q834.17 2.14 826.79 2.14L826.79 2.14L826.79 2.14Q820.80 2.14 817.16 0.75L817.16 0.75L817.16 0.75Q816.52-21.72 815.71-29.75L815.71-29.75L815.71-29.75Q814.91-37.77 814.27-42.16L814.27-42.16L814.27-42.16Q813.20-50.72 809.99-52.75L809.99-52.75L809.99-52.75Q812.45-54.89 814.86-55.80L814.86-55.80L814.86-55.80Q817.27-56.71 822.24-56.71L822.24-56.71L822.24-56.71Q827.22-56.71 830.75-52.80L830.75-52.80L830.75-52.80Q834.28-48.90 834.97-42.00L834.97-42.00L834.97-42.00Q835.67-35.10 835.67-26.75L835.67-26.75L835.67-26.75Q835.67-18.40 835.03-8.35L835.03-8.35L835.03-8.35Q838.34-10.70 841.88-17.87L841.88-17.87L841.88-17.87Q846.69-27.82 848.40-39.80L848.40-39.80L848.40-39.80Q848.94-43.44 848.94-47.29L848.94-47.29L848.94-47.29Q848.94-51.15 848.51-52.75ZM893.88 2.14L893.88 2.14L893.88 2.14Q870.34 2.14 870.34-20.01L870.34-20.01L870.34-20.01Q870.34-35.74 879.00-45.90L879.00-45.90L879.00-45.90Q888.21-56.71 904.15-56.71L904.15-56.71L904.15-56.71Q915.71-56.71 921.59-51.36L921.59-51.36L921.59-51.36Q927.48-46.01 927.48-34.77L927.48-34.77L927.48-34.77Q927.48-17.66 918.27-7.70L918.27-7.70L918.27-7.70Q909.29 2.14 893.88 2.14ZM896.66-44.41L896.66-44.41L896.66-44.41Q895.38-41.52 894.36-37.18L894.36-37.18L894.36-37.18Q893.34-32.85 892.06-26.00L892.06-26.00L892.06-26.00Q890.77-19.15 890.77-10.70L890.77-10.70L890.77-10.70Q890.77-7.92 891.68-6.10L891.68-6.10L891.68-6.10Q892.59-4.28 895.05-4.28L895.05-4.28L895.05-4.28Q897.52-4.28 899.07-5.46L899.07-5.46L899.07-5.46Q900.62-6.63 901.80-9.42L901.80-9.42L901.80-9.42Q903.94-14.34 905.65-23.49L905.65-23.49L905.65-23.49Q907.36-32.63 907.52-36.59L907.52-36.59L907.52-36.59Q907.68-40.55 907.68-43.50L907.68-43.50L907.68-43.50Q907.68-46.44 906.82-48.36L906.82-48.36L906.82-48.36Q905.97-50.29 903.56-50.29L903.56-50.29L903.56-50.29Q901.15-50.29 899.55-48.79L899.55-48.79L899.55-48.79Q897.94-47.29 896.66-44.41ZM965.78-37.56L965.78-37.56L965.78-37.56Q967.28-41.52 967.28-44.94L967.28-44.94L967.28-44.94Q967.28-51.25 962.14-51.25L962.14-51.25L962.14-51.25Q959.47-51.25 957.28-48.85L957.28-48.85L957.28-48.85Q955.08-46.44 955.08-43.44L955.08-43.44L955.08-43.44Q955.08-41.30 956.79-39.59L956.79-39.59L956.79-39.59Q959.25-37.24 965.57-33.38L965.57-33.38L965.57-33.38Q971.88-29.53 974.29-26.38L974.29-26.38L974.29-26.38Q976.70-23.22 976.70-18.89L976.70-18.89L976.70-18.89Q976.70-14.55 974.61-10.59L974.61-10.59L974.61-10.59Q972.52-6.63 968.78-3.85L968.78-3.85L968.78-3.85Q960.75 2.14 947.91 2.14L947.91 2.14L947.91 2.14Q940.96 2.14 935.61-1.50L935.61-1.50L935.61-1.50Q930.26-5.03 930.26-9.20L930.26-9.20L930.26-9.20Q930.26-13.38 933.31-15.84L933.31-15.84L933.31-15.84Q936.36-18.30 940.85-18.30L940.85-18.30L940.85-18.30Q945.34-18.30 948.13-16.59L948.13-16.59L948.13-16.59Q946.74-13.05 946.74-10.70L946.74-10.70L946.74-10.70Q946.74-3.64 952.73-3.64L952.73-3.64L952.73-3.64Q955.30-3.64 957.01-5.24L957.01-5.24L957.01-5.24Q958.72-6.85 958.72-9.63L958.72-9.63L958.72-9.63Q958.72-15.09 949.52-20.86L949.52-20.86L949.52-20.86Q942.03-25.79 940.32-27.71L940.32-27.71L940.32-27.71Q937.43-31.14 937.43-35.42L937.43-35.42L937.43-35.42Q937.43-39.70 939.46-43.76L939.46-43.76L939.46-43.76Q941.49-47.83 945.24-50.72L945.24-50.72L945.24-50.72Q953.05-56.71 966.64-56.71L966.64-56.71L966.64-56.71Q973.59-56.71 977.71-53.93L977.71-53.93L977.71-53.93Q981.83-51.15 981.83-46.44L981.83-46.44L981.83-46.44Q981.83-41.73 979.00-39.05L979.00-39.05L979.00-39.05Q976.16-36.38 971.02-36.38L971.02-36.38L971.02-36.38Q967.49-36.38 965.78-37.56Z" fill="#444"></path></g></g><style>text {
  font-size: 64px;
  font-family: Arial Black;
  dominant-baseline: central;
  text-anchor: middle;
}</style></svg>